<?xml version="1.0" encoding="UTF-8"?>
<svg version="1.1" xmlns="http://www.w3.org/2000/svg" width="232" height="232">
    <path d="M0 0 C1.21171875 0.47953125 2.4234375 0.9590625 3.671875 1.453125 C11.5756615 4.82986008 18.80682376 9.33057942 26 14 C27.11503906 14.69867187 28.23007813 15.39734375 29.37890625 16.1171875 C30.24386719 16.73851563 31.10882813 17.35984375 32 18 C32 18.66 32 19.32 32 20 C32.89525391 20.42539062 32.89525391 20.42539062 33.80859375 20.859375 C50.6593282 29.63016726 63.64645331 54.62430062 69.1875 71.6484375 C70.18439185 75.08624836 71.10966146 78.53327121 72 82 C72.32291016 83.12535156 72.32291016 83.12535156 72.65234375 84.2734375 C80.07732978 110.82995687 74.17070564 142.88919346 61.02661133 166.58203125 C53.3904963 179.91844713 53.3904963 179.91844713 50 184 C49.34 184 48.68 184 48 184 C47.72027344 184.59425781 47.44054687 185.18851563 47.15234375 185.80078125 C37.67620197 203.88575691 11.59088438 216.48580253 -6.9362793 222.36645508 C-7.95782104 222.68005981 -7.95782104 222.68005981 -9 223 C-10.19653198 223.39384888 -10.19653198 223.39384888 -11.41723633 223.7956543 C-21.15284667 226.65695829 -30.87640708 226.59515116 -40.9375 226.5625 C-41.85007568 226.5620166 -42.76265137 226.5615332 -43.70288086 226.56103516 C-57.58700589 226.50981572 -70.12374932 225.61109057 -83 220 C-84.16523193 219.51055908 -84.16523193 219.51055908 -85.35400391 219.01123047 C-93.2040586 215.6689688 -101.06884454 212.01402736 -108 207 C-108 206.34 -108 205.68 -108 205 C-108.99 205 -109.98 205 -111 205 C-111 204.34 -111 203.68 -111 203 C-111.598125 202.71125 -112.19625 202.4225 -112.8125 202.125 C-115 201 -115 201 -118 199 C-118 198.34 -118 197.68 -118 197 C-118.86238281 196.62101562 -118.86238281 196.62101562 -119.7421875 196.234375 C-137.3556558 186.60486638 -148.66976054 160.17555152 -154 142 C-154.25894043 141.12013428 -154.51788086 140.24026855 -154.78466797 139.33374023 C-157.3404646 129.68298526 -157.55434303 120.34888972 -157.5 110.4375 C-157.49856995 109.59783691 -157.49713989 108.75817383 -157.4956665 107.89306641 C-157.44139396 95.02709966 -156.59080862 83.14215852 -152 71 C-151.77006348 70.35820801 -151.54012695 69.71641602 -151.30322266 69.05517578 C-145.14098115 52.12972689 -133.89063292 34.62936709 -120 23 C-119.34 23 -118.68 23 -118 23 C-117.505 21.515 -117.505 21.515 -117 20 C-115.44140625 18.61328125 -115.44140625 18.61328125 -113.5625 17.3125 C-112.94503906 16.87550781 -112.32757813 16.43851563 -111.69140625 15.98828125 C-110 15 -110 15 -108 15 C-108 14.34 -108 13.68 -108 13 C-100.58508701 7.36466613 -91.5745499 3.52791612 -83 0 C-82.3179248 -0.29503418 -81.63584961 -0.59006836 -80.93310547 -0.89404297 C-57.52434745 -10.62662014 -23.18649949 -9.91725651 0 0 Z "
          fill="#EC7F00" transform="translate(157,6)"/>
    <path d="M0 0 C2.17977205 -0.00665466 4.35518915 -0.06164233 6.53417969 -0.11791992 C13.74063879 -0.20434822 19.30245218 -0.09280854 24.80810547 4.97021484 C25.29520996 5.49349365 25.78231445 6.01677246 26.28417969 6.5559082 C27.12505127 7.39593384 27.12505127 7.39593384 27.98291016 8.25292969 C28.4123291 8.6829126 28.84174805 9.11289551 29.28417969 9.5559082 C28.95417969 10.5459082 28.62417969 11.5359082 28.28417969 12.5559082 C25.97417969 12.8859082 23.66417969 13.2159082 21.28417969 13.5559082 C21.84105469 13.57008789 22.39792969 13.58426758 22.97167969 13.59887695 C30.47415143 14.06778144 35.07033571 16.83650176 40.72167969 21.6184082 C42.28417969 23.5559082 42.28417969 23.5559082 42.65527344 25.5090332 C43.47861075 28.1887149 44.57681381 28.74403014 46.90917969 30.2434082 C52.02239317 33.90757021 57.32429512 38.48683231 58.82324219 44.84106445 C58.90917969 46.9934082 58.90917969 46.9934082 58.28417969 50.5559082 C55.16246294 52.6370527 54.40567133 52.81416852 50.84790039 52.86230469 C49.5055407 52.88628578 49.5055407 52.88628578 48.13606262 52.91075134 C46.68764229 52.91879539 46.68764229 52.91879539 45.20996094 52.92700195 C43.71326118 52.94054466 43.71326118 52.94054466 42.18632507 52.95436096 C40.07224532 52.96887679 37.9581205 52.9777535 35.84399414 52.98144531 C32.62600681 52.99330016 29.40996297 53.04243833 26.19238281 53.09301758 C24.13575152 53.10248683 22.07910847 53.10971946 20.02246094 53.11450195 C18.58922234 53.14380043 18.58922234 53.14380043 17.12702942 53.1736908 C12.34013875 53.14174343 9.28085376 52.87826109 5.36303711 50.02099609 C0.22858033 46.41807805 -4.66366234 47.13556445 -10.71582031 47.5559082 C-12.04914329 47.62899923 -13.38257602 47.70010744 -14.71609497 47.76953125 C-18.53291139 47.97793746 -22.346373 48.2247922 -26.16018867 48.48188782 C-28.72647309 48.65431072 -31.29308073 48.82089111 -33.85984802 48.98596191 C-41.15085108 49.45556762 -48.44133494 49.93273732 -55.73120117 50.41967773 C-76.75613003 51.82046602 -97.63267531 53.01524753 -118.71582031 52.5559082 C-119.86564634 48.46586961 -119.82676288 44.52413769 -119.77832031 40.3059082 C-119.77380859 39.56083008 -119.76929687 38.81575195 -119.76464844 38.0480957 C-119.75291277 36.2173318 -119.73497881 34.38660947 -119.71582031 32.5559082 C-111.9874675 29.91229407 -104.2524264 27.37855482 -96.40332031 25.1184082 C-90.39243437 23.38624781 -84.45258386 21.50169708 -78.52832031 19.4934082 C-73.47288614 17.77979219 -68.42921331 16.15285653 -63.27832031 14.7434082 C-55.0140146 12.46226651 -46.92984932 9.63465424 -38.83520508 6.81640625 C-25.89557741 2.39972795 -13.63424046 -0.00465438 0 0 Z "
          fill="#FBC96D" transform="translate(119.7158203125,78.444091796875)"/>
    <path d="M0 0 C2.17977205 -0.00665466 4.35518915 -0.06164233 6.53417969 -0.11791992 C13.74063879 -0.20434822 19.30245218 -0.09280854 24.80810547 4.97021484 C25.29520996 5.49349365 25.78231445 6.01677246 26.28417969 6.5559082 C27.12505127 7.39593384 27.12505127 7.39593384 27.98291016 8.25292969 C28.4123291 8.6829126 28.84174805 9.11289551 29.28417969 9.5559082 C28.95417969 10.5459082 28.62417969 11.5359082 28.28417969 12.5559082 C27.34888428 12.55888916 26.41358887 12.56187012 25.44995117 12.56494141 C-0.09472525 12.76856179 -23.47345491 16.85480056 -48.16889954 23.15766907 C-59.74738777 26.10453309 -71.39255527 28.74979158 -83.04656982 31.37921143 C-86.52209547 32.16536289 -89.9953098 32.96111055 -93.46826172 33.75854492 C-95.61059104 34.2460651 -97.75300236 34.73322513 -99.89550781 35.2199707 C-100.85910217 35.44239441 -101.82269653 35.66481812 -102.81549072 35.89398193 C-108.44757392 37.16237486 -113.9659673 38.02358239 -119.71582031 38.5559082 C-119.71582031 36.5759082 -119.71582031 34.5959082 -119.71582031 32.5559082 C-111.9874675 29.91229407 -104.2524264 27.37855482 -96.40332031 25.1184082 C-90.39243437 23.38624781 -84.45258386 21.50169708 -78.52832031 19.4934082 C-73.47288614 17.77979219 -68.42921331 16.15285653 -63.27832031 14.7434082 C-55.0140146 12.46226651 -46.92984932 9.63465424 -38.83520508 6.81640625 C-25.89557741 2.39972795 -13.63424046 -0.00465438 0 0 Z "
          fill="#FDF9F5" transform="translate(119.7158203125,78.444091796875)"/>
    <path d="M0 0 C1.16982422 -0.02900391 2.33964844 -0.05800781 3.54492188 -0.08789062 C4.67607422 -0.09626953 5.80722656 -0.10464844 6.97265625 -0.11328125 C7.9769165 -0.12786377 8.98117676 -0.14244629 10.01586914 -0.1574707 C12.9375 0.3125 12.9375 0.3125 15.63549805 2.30541992 C20.32345064 5.15493255 24.34909979 4.87898533 29.734375 4.8515625 C30.76435608 4.86335541 31.79433716 4.87514832 32.85552979 4.88729858 C36.13300837 4.92250654 39.40984782 4.93172694 42.6875 4.9375 C45.97924328 4.9538219 49.27070093 4.975783 52.56231689 5.00912476 C54.607774 5.02881771 56.65336269 5.03808289 58.69891357 5.03604126 C59.6203717 5.04300018 60.54182983 5.04995911 61.49121094 5.05712891 C62.30362244 5.05838776 63.11603394 5.05964661 63.95306396 5.0609436 C65.9375 5.3125 65.9375 5.3125 67.9375 7.3125 C67.5625 9.4375 67.5625 9.4375 66.9375 11.3125 C34.69826439 11.47368378 2.46465099 11.23494402 -29.77271652 10.90678024 C-32.90642151 10.87531209 -36.04013683 10.84520112 -39.17385864 10.81546021 C-62.14994924 10.59543697 -85.1043747 10.2982035 -108.0625 9.3125 C-108.0625 8.3225 -108.0625 7.3325 -108.0625 6.3125 C-86.26488712 4.50928236 -64.47899724 2.96434491 -42.62890625 1.95947266 C-41.8415358 1.92323288 -41.05416534 1.8869931 -40.24293518 1.84965515 C-38.69879411 1.77863779 -37.15463539 1.70800299 -35.61045837 1.63777161 C-30.82988276 1.41443249 -26.05916655 1.11739928 -21.28515625 0.77734375 C-14.18762383 0.28929938 -7.11336151 0.06059081 0 0 Z "
          fill="#FDF8F2" transform="translate(110.0625,128.6875)"/>
    <path d="M0 0 C3.2684514 -0.01951314 6.53273885 -0.00822429 9.80078125 0.0390625 C9.80078125 0.3690625 9.80078125 0.6990625 9.80078125 1.0390625 C10.35765625 1.05324219 10.91453125 1.06742187 11.48828125 1.08203125 C18.99460372 1.5511764 23.52437514 4.35072928 29.23828125 9.0390625 C31.06826995 11.38144803 31.31075208 13.14646312 31.80078125 16.0390625 C27.21508935 16.18427221 22.62931789 16.32653635 18.04345703 16.46630859 C16.49004778 16.51404173 14.93666118 16.56251913 13.38330078 16.61181641 C8.90335032 16.75371529 4.42340039 16.88257216 -0.05755615 16.98843384 C-1.46862642 17.02179138 -2.87964292 17.05752023 -4.29058838 17.09579468 C-6.2234044 17.14493901 -8.15664547 17.17641499 -10.08984375 17.20703125 C-11.73388184 17.2383313 -11.73388184 17.2383313 -13.41113281 17.27026367 C-16.30568165 17.0302341 -17.58102592 16.6400822 -19.82421875 14.8515625 C-22.19921875 12.0390625 -22.19921875 12.0390625 -24.13671875 9.1640625 C-24.81734375 8.4628125 -25.49796875 7.7615625 -26.19921875 7.0390625 C-31.31536489 7.46227459 -36.2997266 8.65217623 -41.30078125 9.78125 C-42.05910248 9.95028839 -42.81742371 10.11932678 -43.59872437 10.29348755 C-46.00778732 10.8311881 -48.41599627 11.37261163 -50.82421875 11.9140625 C-52.41661434 12.26976561 -54.00906188 12.62523621 -55.6015625 12.98046875 C-64.4760908 14.96295343 -73.34202083 16.98040068 -82.19921875 19.0390625 C-86.51154562 20.0398107 -90.82400298 21.03999149 -95.13671875 22.0390625 C-96.26392334 22.30033936 -97.39112793 22.56161621 -98.55249023 22.83081055 C-105.66971572 24.4741149 -112.79294816 26.050036 -119.953125 27.49609375 C-122.15599265 27.82211644 -122.15599265 27.82211644 -123.19921875 29.0390625 C-125.85384996 29.49366108 -128.52111013 29.74149488 -131.19921875 30.0390625 C-131.19921875 28.7190625 -131.19921875 27.3990625 -131.19921875 26.0390625 C-126.30402261 24.91127818 -121.4080942 23.78671355 -116.51171875 22.6640625 C-115.74591492 22.48843781 -114.98011108 22.31281311 -114.19110107 22.13186646 C-104.42685853 19.89477686 -94.65638426 17.68831821 -84.875 15.52734375 C-83.92507172 15.31736252 -82.97514343 15.10738129 -81.99642944 14.89103699 C-78.13776221 14.03850659 -74.27899468 13.18645793 -70.41943359 12.33798218 C-59.78982152 10.00013602 -49.19887291 7.57849512 -38.65014648 4.89892578 C-25.45794515 1.55462352 -13.5462696 0.14487989 0 0 Z "
          fill="#F18D15" transform="translate(131.19921875,90.9609375)"/>
    <path d="M0 0 C4.87461475 -0.09924823 9.74863497 -0.17164581 14.62402344 -0.21972656 C16.28070325 -0.23978009 17.93731282 -0.26703029 19.59375 -0.30175781 C21.98194758 -0.35055512 24.36920547 -0.37303064 26.7578125 -0.390625 C27.85973434 -0.42159271 27.85973434 -0.42159271 28.98391724 -0.45318604 C35.0779537 -0.45581523 38.58306144 1.59855464 42.828125 5.81640625 C43.29734375 6.39261719 43.7665625 6.96882813 44.25 7.5625 C44.72953125 8.14128906 45.2090625 8.72007813 45.703125 9.31640625 C49.30204362 13.98849638 49.45706719 16.24095347 49 22 C45.16327717 24.55781522 42.05464013 24.25306456 37.61328125 24.1953125 C36.79627243 24.1924826 35.97926361 24.18965271 35.13749695 24.18673706 C32.52901541 24.17554541 29.9208777 24.1504429 27.3125 24.125 C25.54362475 24.11496888 23.77474412 24.10584326 22.00585938 24.09765625 C17.67044051 24.07560942 13.33527855 24.0410867 9 24 C9.48412354 23.56276611 9.96824707 23.12553223 10.46704102 22.67504883 C12.25066035 21.02149509 12.25066035 21.02149509 12.52734375 18.19921875 C11.81998567 13.90791309 9.55916473 11.74232463 6.5625 8.8125 C1.10455827 3.31367481 1.10455827 3.31367481 0 0 Z "
          fill="#FDFBF8" transform="translate(129,107)"/>
    <path d="M0 0 C6.25878671 -0.27643856 9.44857509 0.40575487 14.48580933 4.08087158 C18.39539528 6.32941599 22.72503523 5.96608229 27.12741089 5.94772339 C28.11491333 5.9628447 29.10241577 5.977966 30.11984253 5.99354553 C33.24760089 6.03624155 36.3743908 6.04524322 39.50241089 6.05319214 C41.63394673 6.07635044 43.76545977 6.10171854 45.89694214 6.12936401 C51.09877443 6.192037 56.30023104 6.22711481 61.50241089 6.24069214 C61.50241089 6.57069214 61.50241089 6.90069214 61.50241089 7.24069214 C57.87241089 7.24069214 54.24241089 7.24069214 50.50241089 7.24069214 C50.50241089 7.90069214 50.50241089 8.56069214 50.50241089 9.24069214 C45.77021327 9.33996367 41.03862876 9.41234847 36.30563354 9.4604187 C34.69745315 9.48046841 33.08934506 9.50771577 31.48141479 9.54244995 C29.16271069 9.59126477 26.84497464 9.61372642 24.52584839 9.63131714 C23.8131076 9.65196228 23.10036682 9.67260742 22.36602783 9.69387817 C17.17810522 9.69618231 14.65402746 8.17246334 10.50241089 5.24069214 C7.82167377 4.66897324 7.82167377 4.66897324 5.06491089 4.77975464 C4.02060913 4.7822522 2.97630737 4.78474976 1.90036011 4.787323 C0.77903687 4.81318481 -0.34228638 4.83904663 -1.49758911 4.86569214 C-2.67949829 4.87930786 -3.86140747 4.89292358 -5.07913208 4.9069519 C-16.47814992 5.10353824 -27.83045516 5.89646901 -39.19680786 6.73678589 C-45.94039999 7.22601818 -52.67815987 7.51696329 -59.43508911 7.74069214 C-68.46957363 8.04460226 -77.42021027 8.71669312 -86.41751099 9.57614136 C-94.46943769 10.31418742 -102.41548085 10.45183575 -110.49758911 10.24069214 C-110.49758911 9.91069214 -110.49758911 9.58069214 -110.49758911 9.24069214 C-107.19758911 8.91069214 -103.89758911 8.58069214 -100.49758911 8.24069214 C-104.12758911 7.91069214 -107.75758911 7.58069214 -111.49758911 7.24069214 C-111.49758911 6.91069214 -111.49758911 6.58069214 -111.49758911 6.24069214 C-110.59622475 6.2153817 -110.59622475 6.2153817 -109.676651 6.18955994 C-94.61931656 5.74543487 -79.59689787 4.99678986 -64.56399536 4.04928589 C-63.69427471 3.99454731 -62.82455406 3.93980873 -61.92847824 3.88341141 C-54.71737079 3.42825057 -47.50681683 2.96454561 -40.29629517 2.50021362 C-34.86824951 2.15092777 -29.4400229 1.8047479 -24.01151848 1.46266365 C-21.51224854 1.30393811 -19.01329598 1.1407711 -16.514328 0.97737122 C-12.8251423 0.73939932 -9.13545367 0.52962877 -5.44325638 0.34434128 C-3.62778492 0.2476279 -1.81375603 0.1248165 0 0 Z "
          fill="#F28F19" transform="translate(112.49758911132813,124.75930786132813)"/>
    <path d="M0 0 C0.95471191 -0.02126953 1.90942383 -0.04253906 2.89306641 -0.06445312 C9.93446206 -0.09904851 14.18007359 1.01511994 19.5625 5.8125 C21.6875 8.25 21.6875 8.25 21.6875 10.25 C16.54647896 10.42382512 11.40718896 10.55042611 6.26391602 10.63452148 C4.51686794 10.66959498 2.77002345 10.71726971 1.02368164 10.77807617 C-13.46916559 11.26984943 -13.46916559 11.26984943 -18.05810547 8.73095703 C-19.8635504 6.9764594 -21.17839007 5.49230648 -22.3125 3.25 C-22.3125 2.59 -22.3125 1.93 -22.3125 1.25 C-14.90107216 0.25708144 -7.46679911 0.08366161 0 0 Z "
          fill="#FDFAF7" transform="translate(140.3125,93.75)"/>
    <path d="M0 0 C0.99 0.99 0.99 0.99 2 2 C0.97753174 2.2266333 -0.04493652 2.4532666 -1.09838867 2.68676758 C-4.95463344 3.54167344 -8.81071328 4.39732129 -12.66674805 5.25317383 C-14.32393091 5.62088385 -15.98115625 5.9884025 -17.63842773 6.35571289 C-27.43589124 8.5273309 -37.22617219 10.72386012 -47 13 C-51.31228178 14.00094247 -55.62478426 15.000929 -59.9375 16 C-61.06470459 16.26127686 -62.19190918 16.52255371 -63.35327148 16.79174805 C-70.47049697 18.4350524 -77.59372941 20.0109735 -84.75390625 21.45703125 C-86.9567739 21.78305394 -86.9567739 21.78305394 -88 23 C-90.65463121 23.45459858 -93.32189138 23.70243238 -96 24 C-96 22.68 -96 21.36 -96 20 C-91.10480389 18.87221569 -86.20888846 17.74759423 -81.3125 16.625 C-80.55234589 16.45070465 -79.79219177 16.2764093 -79.00900269 16.09683228 C-69.03950041 13.81324565 -59.06340013 11.56130011 -49.078125 9.34765625 C-48.07867355 9.12607849 -47.07922211 8.90450073 -46.04948425 8.6762085 C-41.12843658 7.58607419 -36.20676419 6.49883244 -31.28442383 5.41455078 C-29.45130225 5.00958668 -27.61821212 4.6044802 -25.78515625 4.19921875 C-24.91651443 4.00805481 -24.04787262 3.81689087 -23.15290833 3.61993408 C-17.48351801 2.36210356 -11.86517421 0.97239514 -6.27514648 -0.60620117 C-3.78258084 -1.03763248 -2.35125154 -0.90150795 0 0 Z "
          fill="#F18B12" transform="translate(96,97)"/>
    <path d="M0 0 C1.71751465 -0.00676758 1.71751465 -0.00676758 3.46972656 -0.01367188 C10.02015295 -0.00209527 16.43542934 0.32060123 22.9375 1.125 C22.9375 1.455 22.9375 1.785 22.9375 2.125 C21.98218384 2.154729 21.98218384 2.154729 21.00756836 2.18505859 C9.26434128 2.56519346 -2.42673694 3.06696913 -14.125 4.1875 C-23.14511997 5.04979689 -32.00248471 5.36169126 -41.0625 5.125 C-41.0625 4.795 -41.0625 4.465 -41.0625 4.125 C-37.7625 3.795 -34.4625 3.465 -31.0625 3.125 C-34.6925 2.795 -38.3225 2.465 -42.0625 2.125 C-42.0625 1.795 -42.0625 1.465 -42.0625 1.125 C-28.04293564 0.49233603 -14.03510118 0.02260687 0 0 Z "
          fill="#F29322" transform="translate(43.0625,129.875)"/>
    <path d="M0 0 C-2.90106078 1.62366953 -5.24025995 2.32376725 -8.54296875 2.6328125 C-9.43951172 2.71684326 -10.33605469 2.80087402 -11.25976562 2.88745117 C-12.22591797 2.96584229 -13.19207031 3.0442334 -14.1875 3.125 C-15.19619141 3.20919189 -16.20488281 3.29338379 -17.24414062 3.38012695 C-33.791832 4.6364786 -50.47219646 4.50497073 -67 3 C-67 2.67 -67 2.34 -67 2 C-44.64003738 0.64430445 -22.40707774 -0.34537824 0 0 Z "
          fill="#F18506" transform="translate(108,127)"/>
    <path d="M0 0 C1.79464082 2.24330103 3.53390625 4.50958108 5.25 6.8125 C-4.48004484 7.57931614 -4.48004484 7.57931614 -7.59375 5.69921875 C-8.9375 4.3125 -8.9375 4.3125 -10.75 1.8125 C-10.42 0.8225 -10.09 -0.1675 -9.75 -1.1875 C-3.49671192 -2.78147539 -3.49671192 -2.78147539 0 0 Z "
          fill="#FBCA6F" transform="translate(119.75,97.1875)"/>
    <path d="M0 0 C0 0.33 0 0.66 0 1 C2.64 1.33 5.28 1.66 8 2 C8 2.33 8 2.66 8 3 C-18.75125788 3.20638953 -18.75125788 3.20638953 -32 2 C-32 1.67 -32 1.34 -32 1 C-9.19872014 -0.19388403 -9.19872014 -0.19388403 0 0 Z "
          fill="#F28C12" transform="translate(73,128)"/>
    <path d="M0 0 C0.33 0 0.66 0 1 0 C1 1.65 1 3.3 1 5 C1.74765625 4.97679687 2.4953125 4.95359375 3.265625 4.9296875 C4.25046875 4.91164062 5.2353125 4.89359375 6.25 4.875 C7.22453125 4.85179687 8.1990625 4.82859375 9.203125 4.8046875 C12 5 12 5 16 7 C11.38 7 6.76 7 2 7 C2 8.65 2 10.3 2 12 C-0.60018816 8.09971775 -0.15085514 4.52565431 0 0 Z "
          fill="#AF650C" transform="translate(0,127)"/>
    <path d="M0 0 C0.66 0.66 1.32 1.32 2 2 C-1.63 2.66 -5.26 3.32 -9 4 C-9 3.34 -9 2.68 -9 2 C-10.32 1.67 -11.64 1.34 -13 1 C-11.58622218 0.63447197 -10.16879424 0.28304505 -8.75 -0.0625 C-7.96109375 -0.25972656 -7.1721875 -0.45695312 -6.359375 -0.66015625 C-3.84697768 -1.0220413 -2.36518108 -0.884416 0 0 Z "
          fill="#F29423" transform="translate(96,97)"/>
    <path d="M0 0 C0.33 0.66 0.66 1.32 1 2 C-2.13641748 3.56820874 -5.57179483 3.38163039 -9 3 C-11.2578125 1.98828125 -11.2578125 1.98828125 -13 1 C-11.58622218 0.63447197 -10.16879424 0.28304505 -8.75 -0.0625 C-7.96109375 -0.25972656 -7.1721875 -0.45695312 -6.359375 -0.66015625 C-3.86185292 -1.01989867 -2.34449197 -0.9077126 0 0 Z "
          fill="#F2921F" transform="translate(61,105)"/>
    <path d="M0 0 C3.5625 -0.375 3.5625 -0.375 7 0 C7.66 0.66 8.32 1.32 9 2 C5.04 2.66 1.08 3.32 -3 4 C-2.01 2.68 -1.02 1.36 0 0 Z "
          fill="#F1890D" transform="translate(23,112)"/>
    <path d="M0 0 C0.33 0.99 0.66 1.98 1 3 C-1.31 3.33 -3.62 3.66 -6 4 C-6 3.34 -6 2.68 -6 2 C-6.99 1.67 -7.98 1.34 -9 1 C-5.92677456 0.08941469 -3.19902639 -0.08886184 0 0 Z "
          fill="#F2911E" transform="translate(75,101)"/>
    <path d="M0 0 C-0.99 0.33 -1.98 0.66 -3 1 C-1.68 1.66 -0.36 2.32 1 3 C-1.64 3.33 -4.28 3.66 -7 4 C-7 2.68 -7 1.36 -7 0 C-3.86650268 -1.04449911 -3.01031744 -0.93423645 0 0 Z "
          fill="#F09C34" transform="translate(7,117)"/>
</svg>
