<svg width="22" height="22" viewBox="0 0 22 22" fill="none" xmlns="http://www.w3.org/2000/svg">
<g clip-path="url(#clip0_66_14)">
<path d="M12.9654 6.402C12.9654 8.09992 12.2824 9.72829 11.0666 10.9289C9.85091 12.1295 8.20201 12.804 6.48269 12.804C4.76337 12.804 3.11448 12.1295 1.89874 10.9289C0.682996 9.72829 7.87774e-10 8.09992 0 6.402C0 4.70408 0.682996 3.07571 1.89874 1.8751C3.11448 0.674494 4.76337 0 6.48269 0C8.20201 0 9.85091 0.674494 11.0666 1.8751C12.2824 3.07571 12.9654 4.70408 12.9654 6.402Z" fill="white"/>
<path d="M22 15.5959C22 16.4369 21.8322 17.2696 21.5063 18.0466C21.1804 18.8236 20.7028 19.5296 20.1006 20.1243C19.4984 20.719 18.7835 21.1907 17.9967 21.5126C17.2099 21.8344 16.3667 22.0001 15.5151 22.0001C13.7952 22.0001 12.1457 21.3253 10.9295 20.1243C9.71338 18.9233 9.03015 17.2943 9.03015 15.5959C9.03015 13.8974 9.71338 12.2684 10.9295 11.0674C12.1457 9.86638 13.7952 9.19165 15.5151 9.19165C16.3667 9.19165 17.2099 9.3573 17.9967 9.67914C18.7835 10.001 19.4984 10.4727 20.1006 11.0674C20.7028 11.6621 21.1804 12.3681 21.5063 13.1451C21.8322 13.9221 22 14.7548 22 15.5959Z" fill="white"/>
<path opacity="0.05" fill-rule="evenodd" clip-rule="evenodd" d="M0.0236816 6.94974C0.124375 8.15935 0.56893 9.31593 1.30584 10.2855C2.04274 11.255 3.04183 11.9978 4.18733 12.4278C5.33283 12.8578 6.57785 12.9573 7.77813 12.715C8.9784 12.4726 10.0848 11.8982 10.9691 11.0583C11.8534 10.2184 12.4794 9.14747 12.7746 7.96952C13.0698 6.79157 13.0221 5.55485 12.637 4.40267C12.2519 3.25049 11.5452 2.23002 10.5987 1.45949C9.65229 0.68897 8.50487 0.19994 7.28942 0.0490723C5.63907 0.596073 4.13155 1.49861 2.87525 2.69179C1.61895 3.88496 0.645087 5.33913 0.0236816 6.94974Z" fill="white"/>
<path opacity="0.05" fill-rule="evenodd" clip-rule="evenodd" d="M21.983 15.1359C21.8983 13.9116 21.4615 12.7369 20.7242 11.7507C19.9869 10.7646 18.98 10.0084 17.8226 9.57142C16.6652 9.13447 15.4057 9.03511 14.1931 9.2851C12.9805 9.5351 11.8655 10.124 10.9801 10.9821C10.0946 11.8402 9.4757 12.9316 9.19658 14.1273C8.91746 15.3229 8.98979 16.5728 9.40502 17.729C9.82025 18.8852 10.561 19.8994 11.5397 20.6516C12.5183 21.4038 13.6939 21.8625 14.9274 21.9735C16.5327 21.4072 17.9948 20.5025 19.2129 19.3219C20.431 18.1413 21.3761 16.7136 21.983 15.1359Z" fill="white"/>
<path opacity="0.1" fill-rule="evenodd" clip-rule="evenodd" d="M0.327148 8.41351C0.66765 9.4456 1.26677 10.3753 2.06847 11.1155C2.87018 11.8558 3.84828 12.3826 4.91129 12.6465C5.97431 12.9104 7.08751 12.9028 8.14678 12.6246C9.20606 12.3463 10.1768 11.8064 10.9682 11.0553C11.7596 10.3042 12.3459 9.36653 12.6721 8.32993C12.9983 7.29333 13.0539 6.19168 12.8336 5.12802C12.6133 4.06435 12.1244 3.07342 11.4125 2.24791C10.7006 1.42239 9.789 0.789254 8.76301 0.407715C6.74114 0.825081 4.87828 1.79689 3.38677 3.21236C1.89526 4.62783 0.835107 6.43002 0.327148 8.41351Z" fill="white"/>
<path opacity="0.1" fill-rule="evenodd" clip-rule="evenodd" d="M21.6884 13.6312C21.3529 12.5869 20.7533 11.645 19.9466 10.8952C19.14 10.1454 18.1531 9.61259 17.0798 9.34748C16.0066 9.08238 14.8828 9.09379 13.8153 9.38063C12.7478 9.66748 11.7721 10.2202 10.9811 10.9862C10.1901 11.7523 9.61012 12.7061 9.29629 13.757C8.98247 14.8079 8.94526 15.9209 9.18821 16.99C9.43117 18.0592 9.9462 19.049 10.6843 19.8652C11.4224 20.6814 12.359 21.2969 13.405 21.6531C15.401 21.2092 17.233 20.2238 18.6959 18.8071C20.1588 17.3903 21.195 15.5982 21.6884 13.6312Z" fill="white"/>
<path opacity="0.1" fill-rule="evenodd" clip-rule="evenodd" d="M0.56543 9.02064C0.987225 9.96234 1.6316 10.7896 2.4441 11.4325C3.25661 12.0755 4.21336 12.5151 5.23353 12.7145C6.25369 12.9138 7.30729 12.8668 8.30529 12.5776C9.30329 12.2884 10.2164 11.7654 10.9674 11.0528C11.7183 10.3402 12.2852 9.45902 12.62 8.48361C12.9548 7.5082 13.0477 6.46727 12.8909 5.44878C12.7341 4.43029 12.3321 3.46416 11.719 2.63204C11.1059 1.79992 10.2997 1.12625 9.36839 0.667969C7.21467 1.00013 5.21571 1.97918 3.64147 3.4729C2.06723 4.96661 0.993546 6.90303 0.56543 9.02064Z" fill="white"/>
<path opacity="0.1" fill-rule="evenodd" clip-rule="evenodd" d="M21.4494 13.0114C21.0298 12.0588 20.383 11.2213 19.5647 10.571C18.7463 9.92069 17.7809 9.47692 16.7513 9.27783C15.7217 9.07874 14.6587 9.13027 13.6537 9.42802C12.6486 9.72576 11.7315 10.2608 10.9812 10.9872C10.2308 11.7136 9.66967 12.6096 9.34591 13.5983C9.02215 14.5869 8.94545 15.6387 9.12242 16.6632C9.29938 17.6877 9.72471 18.6543 10.3619 19.48C10.999 20.3058 11.829 20.9659 12.7804 21.4037C14.9152 21.0443 16.8887 20.0484 18.4376 18.549C19.9865 17.0495 21.0371 15.1178 21.4494 13.0114Z" fill="white"/>
<path d="M21.2687 11.0478C21.2687 12.3793 21.0031 13.6979 20.4871 14.9281C19.9711 16.1583 19.2148 17.2761 18.2614 18.2177C17.3079 19.1592 16.176 19.9061 14.9303 20.4157C13.6846 20.9253 12.3494 21.1876 11.0011 21.1876C9.65268 21.1876 8.31752 20.9253 7.07179 20.4157C5.82606 19.9061 4.69416 19.1592 3.74072 18.2177C2.78728 17.2761 2.03097 16.1583 1.51498 14.9281C0.998979 13.6979 0.733398 12.3793 0.733398 11.0478C0.733398 9.71618 0.998979 8.39764 1.51498 7.16743C2.03097 5.93721 2.78728 4.8194 3.74072 3.87784C4.69416 2.93627 5.82606 2.18938 7.07179 1.67981C8.31752 1.17023 9.65268 0.907959 11.0011 0.907959C12.3494 0.907959 13.6846 1.17023 14.9303 1.67981C16.176 2.18938 17.3079 2.93627 18.2614 3.87784C19.2148 4.8194 19.9711 5.93721 20.4871 7.16743C21.0031 8.39764 21.2687 9.71618 21.2687 11.0478Z" fill="white"/>
<path fill-rule="evenodd" clip-rule="evenodd" d="M8.11388 10.6957C7.69895 10.4251 7.3527 10.0632 7.10214 9.63824C6.86023 9.18925 6.74083 8.68546 6.75576 8.17671C6.73743 7.53107 6.95981 6.90136 7.38042 6.40791C7.81754 5.91237 8.37935 5.54042 9.00868 5.32991C9.69314 5.09032 10.4143 4.96999 11.1402 4.97424C11.6152 4.9698 12.0896 5.00586 12.5583 5.08204C12.8938 5.13337 13.2233 5.21763 13.5419 5.33358C13.8345 5.43171 14.0987 5.59881 14.3116 5.82051C14.4685 6.00291 14.553 6.23573 14.5492 6.47538C14.5548 6.59988 14.5356 6.72425 14.4927 6.8414C14.4497 6.95854 14.3839 7.06616 14.299 7.15811C14.2187 7.24284 14.1212 7.30977 14.0129 7.35451C13.9046 7.39926 13.788 7.42079 13.6707 7.41771C13.5093 7.41639 13.3501 7.38089 13.2037 7.31358C12.8428 7.15355 12.4711 7.01878 12.0913 6.91024C11.7416 6.81889 11.3812 6.77449 11.0196 6.77824C10.5483 6.76106 10.0821 6.87922 9.67701 7.11851C9.50607 7.22142 9.36617 7.36792 9.27191 7.54272C9.17765 7.71751 9.13249 7.91418 9.14116 8.11218C9.13867 8.37212 9.23849 8.62281 9.41945 8.81104C9.63447 9.03217 9.88858 9.21237 10.1692 9.34271C10.4835 9.4972 10.9522 9.70204 11.5754 9.95724C11.6444 9.9789 11.7117 10.0056 11.7767 10.0372C12.3849 10.2755 12.9679 10.5725 13.5175 10.9238C13.9515 11.2042 14.3175 11.5763 14.5892 12.0135C14.8567 12.473 14.9906 12.9969 14.9763 13.5271C14.9987 14.1764 14.8109 14.8157 14.4404 15.3516C14.0631 15.8591 13.5411 16.243 12.9417 16.4538C12.2192 16.7096 11.4558 16.8329 10.6887 16.8176C9.63471 16.8541 8.5857 16.6575 7.618 16.2419C7.37061 16.1327 7.15369 15.9656 6.98594 15.755C6.84666 15.5619 6.77445 15.3293 6.78019 15.092C6.77327 14.9669 6.79385 14.8418 6.84049 14.7253C6.88713 14.6088 6.95872 14.5038 7.05033 14.4174C7.24239 14.2507 7.49171 14.1636 7.74678 14.1739C8.03098 14.1777 8.31013 14.2489 8.56091 14.3814C8.87275 14.5359 9.11871 14.6518 9.29881 14.729C9.50449 14.8144 9.71752 14.8811 9.93531 14.9285C10.2039 14.9869 10.4782 15.0149 10.7531 15.0121C11.2393 15.0465 11.7231 14.9187 12.1275 14.6491C12.2789 14.5317 12.3999 14.3803 12.4805 14.2074C12.5611 14.0345 12.5989 13.845 12.5909 13.6547C12.5913 13.3849 12.4875 13.1251 12.3007 12.9287C12.0539 12.6762 11.765 12.4678 11.4466 12.3127C11.0702 12.1162 10.5407 11.8766 9.85834 11.594C9.24803 11.3531 8.66363 11.0521 8.11388 10.6957Z" fill="#1B1B1B"/>
</g>
<defs>
<clipPath id="clip0_66_14">
<rect width="22" height="22" fill="white"/>
</clipPath>
</defs>
</svg>
