<svg width="22" height="20" viewBox="0 0 22 20" fill="none" xmlns="http://www.w3.org/2000/svg">
<path d="M8.25 0C3.696 0 0 3.3625 0 7.5C0 9.8625 1.188 11.95 3.058 13.325L2.2 16.25L4.95 14.375C5.929 14.7625 7.007 15 8.151 15C7.865 14.2125 7.7 13.375 7.7 12.5C7.7 8.3625 11.143 5 15.4 5C15.609 5 15.818 5 16.016 5.0375C14.894 2.1125 11.858 0 8.25 0ZM4.95 3.125C5.24174 3.125 5.52153 3.2567 5.72782 3.49112C5.93411 3.72554 6.05 4.04348 6.05 4.375C6.05 4.53915 6.02155 4.7017 5.96627 4.85335C5.91099 5.00501 5.82996 5.14281 5.72782 5.25888C5.62567 5.37496 5.50441 5.46703 5.37095 5.52985C5.23749 5.59267 5.09445 5.625 4.95 5.625C4.65826 5.625 4.37847 5.4933 4.17218 5.25888C3.96589 5.02446 3.85 4.70652 3.85 4.375C3.85 4.04348 3.96589 3.72554 4.17218 3.49112C4.37847 3.2567 4.65826 3.125 4.95 3.125ZM10.45 3.125C10.7417 3.125 11.0215 3.2567 11.2278 3.49112C11.4341 3.72554 11.55 4.04348 11.55 4.375C11.55 4.70652 11.4341 5.02446 11.2278 5.25888C11.0215 5.4933 10.7417 5.625 10.45 5.625C10.1583 5.625 9.87847 5.4933 9.67218 5.25888C9.46589 5.02446 9.35 4.70652 9.35 4.375C9.35 4.04348 9.46589 3.72554 9.67218 3.49112C9.87847 3.2567 10.1583 3.125 10.45 3.125ZM15.4 6.25C11.759 6.25 8.8 9.05 8.8 12.5C8.8 15.95 11.759 18.75 15.4 18.75C16.137 18.75 16.841 18.65 17.501 18.4375L19.8 20L19.118 17.6625C20.845 16.525 22 14.6375 22 12.5C22 9.05 19.041 6.25 15.4 6.25ZM13.2 9.375C13.4917 9.375 13.7715 9.5067 13.9778 9.74112C14.1841 9.97554 14.3 10.2935 14.3 10.625C14.3 10.9565 14.1841 11.2745 13.9778 11.5089C13.7715 11.7433 13.4917 11.875 13.2 11.875C12.9083 11.875 12.6285 11.7433 12.4222 11.5089C12.2159 11.2745 12.1 10.9565 12.1 10.625C12.1 10.2935 12.2159 9.97554 12.4222 9.74112C12.6285 9.5067 12.9083 9.375 13.2 9.375ZM17.6 9.375C17.8917 9.375 18.1715 9.5067 18.3778 9.74112C18.5841 9.97554 18.7 10.2935 18.7 10.625C18.7 10.9565 18.5841 11.2745 18.3778 11.5089C18.1715 11.7433 17.8917 11.875 17.6 11.875C17.3083 11.875 17.0285 11.7433 16.8222 11.5089C16.6159 11.2745 16.5 10.9565 16.5 10.625C16.5 10.2935 16.6159 9.97554 16.8222 9.74112C17.0285 9.5067 17.3083 9.375 17.6 9.375Z" fill="white"/>
</svg>
