<?xml version="1.0" encoding="utf-8"?>
<!-- Generator: Adobe Illustrator 23.0.1, SVG Export Plug-In . SVG Version: 6.00 Build 0)  -->
<svg version="1.1" id="Layer_1" xmlns="http://www.w3.org/2000/svg" xmlns:xlink="http://www.w3.org/1999/xlink" x="0px" y="0px"
	 viewBox="0 0 512 66" style="enable-background:new 0 0 512 66;" xml:space="preserve">
<style type="text/css">
	.st0{fill:#34495E;}
	.st1{fill:#F39C12;}
</style>
<g>
	<g>
		<path class="st0" d="M76.88,0.36h13.33v52.6h27.95v12.69H76.88V0.36z"/>
		<path class="st0" d="M148.48,44.31h-8.37v21.33h-13.33V0.36h21.7c13.24,0,22.9,9.56,22.9,21.98S161.72,44.31,148.48,44.31z
			 M148.29,12.86h-8.18v18.94h8.18c6.16,0,10.11-4.05,10.11-9.47S154.45,12.86,148.29,12.86z"/>
		<path class="st0" d="M180.72,0.36h13.33v26.02h28.32V0.36h13.33v65.29h-13.33V39.07h-28.32v26.57h-13.33V0.36z"/>
		<path class="st0" d="M271.6,0.36h11.86l28.23,65.29h-13.98l-6.35-14.9h-27.86l-6.25,14.9h-13.79L271.6,0.36z M268.48,39.07h17.93
			l-8.92-21.15L268.48,39.07z"/>
		<path class="st0" d="M319.46,0.36h13.33v52.6h27.95v12.69h-41.29V0.36z"/>
		<path class="st0" d="M369.36,0.36h13.33v65.29h-13.33V0.36z"/>
		<path class="st0" d="M444.58,65.64L411.1,23.07v42.58h-13.33V0.36h11.49l33.47,42.58V0.36h13.33v65.29H444.58z"/>
		<path class="st0" d="M471.36,0.36H512v12.69h-27.31v13.43h21.79v12.69h-21.79v13.79H512v12.69h-40.64V0.36z"/>
	</g>
	<g>
		<polygon class="st1" points="13.79,27.09 13.79,14.15 26.73,14.15 40.52,0.36 0,0.36 0,39.07 0,40.89 1.82,39.07 		"/>
		<path class="st0" d="M57.05,0.36h-0.02L43.24,14.15L18.33,39.07l-4.53,4.53v0.01l-7.14,7.14H6.65L0,57.39v0.01v8.24h8.25
			l14.9-14.9H51.5v14.9h13.79v-14.9V39.07V8.62V0.36H57.05z M51.5,39.07H34.83L51.5,22.41V39.07z"/>
	</g>
</g>
</svg>
