<svg xmlns="http://www.w3.org/2000/svg" width="330" height="56" fill="none"><g fill-rule="evenodd" clip-path="url(#a)" clip-rule="evenodd"><path fill="#4987C6" d="M60.04 32.89V45h9.64v-2.34h19.4l9.647-9.772H60.04Z"/><path fill="#58A5DB" d="M60.04 46.221v9.78H77.103l9.647-9.78H60.04Z"/><path fill="#205CAA" d="M69.68 29.33h7.423l9.647-9.78H60.04v12.12h9.64v-2.34Z"/><path fill="#205CAA" d="M27.627 0H86.75l-9.647 9.779H27.627c-9.871 0-17.98 8.219-17.98 18.224 0 10.006 8.109 18.225 17.98 18.225h18.099V29.33h-7.423l-9.647-9.78h26.71V56H27.627C12.432 56 0 43.399 0 28.003 0 12.601 12.432 0 27.627 0Z"/><path fill="#58A5DB" d="M306.64 23.82c0-.497.119-.965.357-1.412.231-.446.546-.836.938-1.177.391-.34.832-.61 1.336-.808a4.21 4.21 0 0 1 1.56-.298c1.21 0 2.379.503 3.498 1.503l11.403 10.354V20.48h4.261v11.275c0 .595-.098 1.149-.287 1.68a3.92 3.92 0 0 1-2.127 2.305c-.517.234-1.105.347-1.763.347-.314 0-.608-.028-.881-.085a4.099 4.099 0 0 1-.819-.269 6.423 6.423 0 0 1-.846-.468 17.221 17.221 0 0 1-.98-.688l-11.417-10.261v11.537h-4.24V23.82h.007Zm-7.821.652h-14.706v7.446h14.706v-7.446Zm-13.104-4h12.25c.693 0 1.351.135 1.98.405.637.27 1.19.624 1.665 1.078.476.453.861.978 1.141 1.567.286.595.426 1.212.426 1.858v5.708c0 .426-.07.837-.196 1.241a4.422 4.422 0 0 1-.552 1.114 4.93 4.93 0 0 1-.854.95 5.905 5.905 0 0 1-1.077.737 5.92 5.92 0 0 1-1.245.482c-.441.114-.889.17-1.351.17h-12.788a5.8 5.8 0 0 1-2.092-.368 5.225 5.225 0 0 1-1.679-1.021 4.972 4.972 0 0 1-1.119-1.56 4.695 4.695 0 0 1-.406-1.965v-5.843c0-.666.168-1.276.497-1.844a4.86 4.86 0 0 1 1.329-1.44 6.371 6.371 0 0 1 1.889-.935 7.077 7.077 0 0 1 2.175-.34l.007.006Zm-8.199-.063v15.565h-4.274V20.41h4.274Zm-30.264.02h23.562v3.915h-9.661v11.51h-4.177v-11.51h-9.724V20.43Zm-21.324-.02v11.566h15.237V20.409h4.45V31.35c0 .375-.07.744-.203 1.113-.14.369-.322.716-.56 1.042a5.67 5.67 0 0 1-.826.93 5.882 5.882 0 0 1-1.042.737 5.182 5.182 0 0 1-1.161.489c-.406.12-.812.177-1.218.177h-13.859c-.433 0-.867-.063-1.287-.198a5.873 5.873 0 0 1-1.217-.546 5.685 5.685 0 0 1-1.071-.823 5.7 5.7 0 0 1-.853-1.035 4.907 4.907 0 0 1-.567-1.156 3.875 3.875 0 0 1-.203-1.22V20.395h4.387l-.007.014ZM219.75 31.81v4.035h-18.182a4.88 4.88 0 0 1-1.917-.39A5.608 5.608 0 0 1 198 34.414a5.3 5.3 0 0 1-1.161-1.518 3.91 3.91 0 0 1-.441-1.8v-10.73h4.365v11.445h18.987Zm-30.719-7.339h-15.16v7.446h15.16v-7.446Zm-13.509-4h12.628c.713 0 1.392.135 2.042.405.651.27 1.225.624 1.714 1.078.49.453.882.978 1.176 1.567.294.595.441 1.212.441 1.858v5.708c0 .426-.07.837-.203 1.241a4.094 4.094 0 0 1-.574 1.114c-.245.347-.539.659-.875.95a6.173 6.173 0 0 1-1.112.737 6.106 6.106 0 0 1-1.287.482c-.455.114-.917.17-1.392.17h-13.188c-.769 0-1.49-.12-2.154-.368a5.302 5.302 0 0 1-1.728-1.021 4.856 4.856 0 0 1-1.148-1.56 4.597 4.597 0 0 1-.42-1.965v-5.843c0-.666.168-1.276.511-1.844a4.855 4.855 0 0 1 1.371-1.44 6.634 6.634 0 0 1 1.945-.935 7.498 7.498 0 0 1 2.246-.34l.007.006Zm-24.99 0 6.521 11.51 6.653-11.566h4.715l-7.01 12.488c-.252.446-.518.858-.791 1.24a5.245 5.245 0 0 1-.923.972c-.343.27-.721.482-1.14.631-.42.156-.896.227-1.435.227-.58 0-1.098-.092-1.567-.284a4.374 4.374 0 0 1-1.273-.773 6.41 6.41 0 0 1-1.028-1.141 12.42 12.42 0 0 1-.861-1.404l-6.639-11.907h4.792l-.014.008Zm-24.884-.106h17.287v3.978H123.99v1.801h18.945v3.993H123.99v1.673h18.945v4.1h-17.329a6.46 6.46 0 0 1-2.19-.37 6.146 6.146 0 0 1-1.854-1.028 5.05 5.05 0 0 1-1.287-1.574 4.225 4.225 0 0 1-.483-2.007v-5.61c0-.772.154-1.474.462-2.084a4.583 4.583 0 0 1 1.252-1.56 5.523 5.523 0 0 1 1.854-.972 7.51 7.51 0 0 1 2.288-.34Z"/><path fill="#205CAA" d="M225.55 9.049v3.19h-9.717c-.35 0-.693-.099-1.022-.304a3.15 3.15 0 0 1-.881-.823 4.494 4.494 0 0 1-.861-2.624V0h2.33v9.049h10.151Zm-38.506-4.532V3.141h-10.417v1.376h10.417Zm0 4.567V7.68h-10.417v1.404h10.417ZM185.953.035c.609 0 1.175.078 1.686.234.511.15.958.383 1.329.695.371.305.665.702.868 1.17.21.476.315 1.022.315 1.653 0 .808-.224 1.567-.665 2.283.105.17.217.333.322.49.105.163.203.326.294.496.091.17.16.354.216.553.056.199.084.418.084.66 0 .368-.049.73-.147 1.07a4.002 4.002 0 0 1-1.056 1.759 4.092 4.092 0 0 1-1.728 1.014 3.64 3.64 0 0 1-.986.135h-12.943V.035h12.418-.007Zm-18.602 3.206h-10.326v5.886h10.326V3.24ZM158.158.085h8.598a3.2 3.2 0 0 1 1.392.32c.441.212.833.496 1.169.85.335.362.601.773.804 1.241.203.468.301.957.301 1.468v4.517c0 .34-.049.667-.14.979a3.865 3.865 0 0 1-1.742 2.212 3.526 3.526 0 0 1-1.819.518h-8.976c-.524 0-1.014-.1-1.469-.29a3.528 3.528 0 0 1-1.175-.81 3.776 3.776 0 0 1-.784-1.233 4.165 4.165 0 0 1-.287-1.553V3.687c0-.531.119-1.014.35-1.453.238-.44.546-.816.938-1.135.384-.319.825-.567 1.329-.744a4.519 4.519 0 0 1 1.525-.27h-.014Zm-5.905 8.964v3.19h-9.661c-.35 0-.686-.099-1.014-.304a3.34 3.34 0 0 1-.882-.823 4.48 4.48 0 0 1-.616-1.198 4.405 4.405 0 0 1-.23-1.426V0h2.322v9.049h10.095-.014ZM128.81 4.517h8.724v3.886c0 .433-.063.823-.182 1.177a3.335 3.335 0 0 1-1.287 1.681 4.227 4.227 0 0 1-.966.518c-.35.134-.72.24-1.105.305-.385.07-.777.099-1.168.099h-8.298c-.391 0-.776-.036-1.154-.114a4.814 4.814 0 0 1-2.008-.886 3.61 3.61 0 0 1-1.231-1.73 3.602 3.602 0 0 1-.175-1.156V3.41c0-.532.105-1.014.308-1.433.203-.418.496-.772.888-1.063.392-.291.861-.51 1.42-.66a7.059 7.059 0 0 1 1.896-.234h13.118V3.1h-14.503v5.935h11.278V7.66h-5.548V4.503l-.007.014Zm197.041.15c.56 0 1.078.098 1.561.29.482.198.902.468 1.266.808.357.34.636.738.839 1.192.203.453.308.936.308 1.453 0 .518-.112 1.014-.336 1.461-.224.447-.51.83-.881 1.156a4.063 4.063 0 0 1-1.259.759c-.476.177-.966.27-1.47.27h-13.243V9.09h14.16V7.68h-10.928a4.124 4.124 0 0 1-1.497-.277 4.119 4.119 0 0 1-1.273-.758 3.62 3.62 0 0 1-.882-1.17 3.288 3.288 0 0 1-.336-1.483c0-.383.056-.744.175-1.077.119-.334.28-.632.49-.901.203-.27.448-.51.728-.723a4.59 4.59 0 0 1 .909-.525 5.497 5.497 0 0 1 1.015-.333 4.983 4.983 0 0 1 1.07-.114h12.747v2.9h-13.936v1.447h10.773ZM291.76 2.828c0-.382.084-.737.245-1.085.161-.34.385-.645.658-.9.272-.263.58-.468.93-.624.35-.15.714-.227 1.091-.227.847 0 1.658.383 2.442 1.149l7.954 7.942V.269h2.974v8.645c0 .454-.063.88-.196 1.283a3.082 3.082 0 0 1-.567 1.05c-.252.305-.56.539-.916.716-.364.177-.77.27-1.232.27a2.483 2.483 0 0 1-1.182-.27 4.457 4.457 0 0 1-.588-.355c-.203-.148-.433-.319-.685-.524l-7.962-7.865v8.85h-2.959V2.837l-.007-.008Zm-36.792 1.837h10.361V3.241h-10.361v1.425Zm-3.071-4.41 12.768.013c.468 0 .916.1 1.343.305.427.199.804.468 1.133.809.329.34.595.73.791 1.177.196.447.294.908.294 1.397 0 .362-.056.716-.168 1.07a3.7 3.7 0 0 1-.497 1c.245.291.434.618.567.972.14.362.203.702.203 1.035v4.028h-3.009V7.637h-10.361v4.425h-3.071V.255h.007ZM233.498.24h16.601v3h-6.807v8.821h-2.945V3.241h-6.856v-3h.007Zm-33.84 9.53h7.339V7.298h-6.982c-1.126 0-1.896.1-2.323.298-.427.198-.636.546-.636 1.042 0 .419.174.716.51.887.343.17 1.043.248 2.099.248h-.007ZM193.299.2v2.474h7.989c1.63 0 4.093.142 4.729.433.63.284.945.787.945 1.496V4.9h-7.64c-8.948 0-7.136 7.276-1.616 7.276h12.887V4.673c0-4.588-1.875-4.474-7.479-4.474h-9.815Zm84.861 9.658h7.248V7.382h-6.891c-1.127 0-1.896.1-2.323.298-.427.198-.637.546-.637 1.042 0 .419.175.717.511.887.343.17 1.042.248 2.092.248ZM271.801.284h9.815c5.611 0 7.479-.114 7.479 4.474v7.503h-12.887c-5.52 0-7.332-7.276 1.616-7.276h7.542v-.298c0-.709-.315-1.212-.945-1.496-.636-.29-3.001-.432-4.631-.432h-7.989V.284Z"/><path fill="#6D6E71" d="M129.551 47.391h-.44c.042-.283.07-.51.07-.68 0-.227-.091-.37-.28-.44-.189-.071-.889-.107-2.099-.107h-1.21l-.917 3.723h1.707c.539 0 .875-.042 1.001-.12.126-.078.217-.284.266-.603h.475a24.95 24.95 0 0 0-.475 2.22h-.406a8.59 8.59 0 0 0 .035-.617c0-.064-.042-.135-.119-.227a.367.367 0 0 0-.217-.092 4.128 4.128 0 0 0-.7-.043h-1.707c-.489 1.908-.993 3.411-1.518 4.489.511-.17.973-.248 1.371-.248.665 0 1.477.106 2.442.319.511.12.854.177 1.042.177.245 0 .441-.064.588-.184.147-.12.224-.263.224-.419 0-.092-.042-.234-.119-.44a1.19 1.19 0 0 1-.07-.396c0-.128.049-.242.154-.34a.515.515 0 0 1 .371-.15c.168 0 .315.064.427.199.111.135.167.319.167.539 0 .475-.209.893-.622 1.255-.413.361-.959.539-1.637.539a11.7 11.7 0 0 1-1.344-.092c-1.189-.135-2.098-.199-2.728-.199-.818 0-1.777.064-2.875.199l.133-.468c.657-.185 1.049-.32 1.168-.405a.948.948 0 0 0 .294-.375c.266-.532.608-1.603 1.028-3.199.42-1.602.847-3.29 1.287-5.07a3.93 3.93 0 0 0-1.888.475 3.753 3.753 0 0 0-1.393 1.248c-.328.51-.496 1.05-.496 1.617 0 .241.021.454.07.631.042.185.154.433.314.752.105.198.154.355.154.475s-.049.234-.147.326a.536.536 0 0 1-.37.142c-.21 0-.385-.106-.504-.326-.182-.32-.28-.752-.28-1.305 0-1.177.441-2.234 1.322-3.17.882-.936 2.162-1.404 3.841-1.404h2.847c.987 0 1.714-.064 2.183-.191a29.917 29.917 0 0 0-.427 1.978l.007.007Zm4.919 1.78c-.427.695-.721 1.305-.882 1.83a5.394 5.394 0 0 0-.245 1.581c0 .482.105 1.234.315 2.27 1.217-.944 2.085-1.823 2.596-2.646.503-.822.762-1.532.762-2.127 0-.177-.063-.39-.189-.66-.133-.276-.203-.489-.203-.624a.57.57 0 0 1 .147-.383.47.47 0 0 1 .357-.163.49.49 0 0 1 .434.241c.112.163.161.433.161.816 0 1.191-.42 2.354-1.253 3.489a10.235 10.235 0 0 1-3.882 3.212 41.74 41.74 0 0 0-.231-1.262c-.224-1.163-.343-1.971-.343-2.425 0-.603.14-1.184.413-1.752a4.13 4.13 0 0 1 1.224-1.468c-.972.014-1.672.128-2.092.326-.294.15-.447.32-.447.511 0 .078.035.213.111.397a.979.979 0 0 1 .077.333c0 .093-.035.17-.111.241a.394.394 0 0 1-.28.107.452.452 0 0 1-.364-.184c-.098-.121-.147-.291-.147-.497 0-.333.105-.631.322-.893.217-.27.587-.476 1.119-.624.532-.15 1.238-.22 2.106-.213.357-.163.581-.241.672-.241.09 0 .167.035.237.106.07.078.105.15.105.234 0 .177-.168.333-.503.468h.014Zm7.765-.801c.546 0 .994.22 1.357.66.357.439.539 1.042.539 1.822 0 1.24-.434 2.361-1.294 3.354-.861.993-1.777 1.482-2.743 1.482-.594 0-1.07-.199-1.434-.589-.364-.39-.545-.928-.545-1.61 0-1.176.328-2.261 1-3.261.832-1.241 1.875-1.858 3.127-1.858h-.007Zm-.706.638c-.469 0-.924.34-1.365 1.021-.44.681-.657 1.624-.657 2.823 0 .73.133 1.304.405 1.723.196.305.462.46.798.46.462 0 .882-.29 1.266-.872.483-.751.728-1.694.728-2.815 0-.844-.112-1.44-.336-1.801-.224-.362-.504-.539-.839-.539Zm6.828 4.41.279.313a8.402 8.402 0 0 1-1.532 1.354c-.587.404-1.077.61-1.455.61a.512.512 0 0 1-.42-.198c-.112-.135-.167-.312-.167-.546 0-.454.167-1.383.51-2.794l.896-3.695c.329-1.333.594-2.227.818-2.68a3.845 3.845 0 0 1 1.455-1.61 3.733 3.733 0 0 1 1.98-.575c.238 0 .427.057.56.178.133.12.203.255.203.418a.58.58 0 0 1-.196.454c-.133.12-.322.177-.574.177a4.03 4.03 0 0 1-.692-.085 4.662 4.662 0 0 0-.728-.07c-.224 0-.392.049-.511.141-.154.135-.3.411-.426.844-.133.432-.336 1.276-.623 2.546l-.84 3.524c-.412 1.766-.615 2.688-.615 2.766 0 .184.063.27.189.27s.301-.072.531-.22c.455-.291.91-.667 1.358-1.128v.007Zm6.233-4.821-.902 3.46c-.175.66-.546 1.255-1.12 1.773-.566.518-1.007.78-1.315.78-.091 0-.168-.042-.245-.127a.432.432 0 0 1-.112-.305c0-.192.182-.972.539-2.34.399-1.518.602-2.475.602-2.858 0-.213-.042-.362-.126-.461a.4.4 0 0 0-.322-.15c-.238 0-.553.107-.938.313-.384.213-.951.652-1.693 1.319l.357.29c.413-.39.707-.638.875-.744.167-.1.307-.149.405-.149.112 0 .161.078.161.234 0 .27-.189 1.085-.559 2.44-.294 1.07-.483 1.78-.553 2.134a3.78 3.78 0 0 0-.077.71c0 .283.056.481.168.616a.573.573 0 0 0 .455.199c.356 0 .769-.142 1.252-.433a7.495 7.495 0 0 0 1.826-1.503c-.119.482-.182.872-.182 1.163 0 .255.063.446.189.581a.594.594 0 0 0 .448.206c.524 0 1.343-.589 2.455-1.759l-.273-.312c-.51.525-.86.844-1.042.979a.624.624 0 0 1-.336.127.229.229 0 0 1-.168-.085.354.354 0 0 1-.077-.24c0-.235.231-1.206.693-2.915l.783-2.943h-1.189.021Zm4.533-1.51 1.33-.511-.581 2.368h1.693l-.133.603h-1.707l-.728 2.801c-.237.844-.356 1.44-.356 1.766 0 .149.028.262.091.326s.147.1.258.1c.175 0 .434-.107.791-.313.462-.27.903-.581 1.322-.929l.315.376c-1.21.93-2.022 1.496-2.428 1.702-.405.213-.734.312-.986.312a.589.589 0 0 1-.483-.227c-.119-.149-.182-.397-.182-.737 0-.404.105-1.021.315-1.851l.84-3.333h-1.343l.146-.603h1.351l.468-1.858.007.007Zm6.661-2.327c.167 0 .307.057.419.17a.598.598 0 0 1 .161.44.936.936 0 0 1-.252.646c-.168.184-.356.276-.566.276a.542.542 0 0 1-.413-.177c-.112-.12-.161-.27-.161-.461 0-.248.077-.461.238-.638a.74.74 0 0 1 .567-.263l.007.007Zm-3.289 5.581-.356-.29c.552-.617 1.056-1.057 1.504-1.312.455-.263.839-.39 1.161-.39.175 0 .315.042.406.12.091.078.14.184.14.32 0 .162-.175.85-.539 2.07-.581 1.993-.874 3.191-.874 3.595 0 .085.021.15.056.206.042.057.077.085.126.085.174 0 .629-.355 1.357-1.07l.322.325c-.756.73-1.309 1.199-1.658 1.404-.35.206-.63.305-.854.305a.602.602 0 0 1-.462-.184c-.112-.12-.168-.298-.168-.518 0-.702.413-2.41 1.253-5.14.042-.128.056-.242.056-.348 0-.114-.049-.17-.147-.17a.7.7 0 0 0-.378.134c-.14.092-.462.376-.952.865l.007-.007Zm7.941-1.964c.546 0 .993.22 1.357.66.357.44.539 1.042.539 1.822 0 1.24-.434 2.361-1.294 3.354-.861.993-1.777 1.482-2.743 1.482-.595 0-1.07-.198-1.434-.588-.364-.39-.546-.93-.546-1.61 0-1.177.329-2.262.994-3.262.832-1.241 1.875-1.858 3.127-1.858Zm-.707.638c-.468 0-.923.34-1.364 1.021-.441.681-.658 1.624-.658 2.823 0 .73.133 1.304.406 1.723.196.305.462.46.798.46.462 0 .881-.29 1.266-.872.483-.751.728-1.694.728-2.815 0-.844-.112-1.44-.336-1.8-.224-.363-.504-.54-.84-.54Zm3.617 1.362-.287-.291c.714-.688 1.281-1.142 1.707-1.369.42-.227.784-.34 1.085-.34a.47.47 0 0 1 .28.078c.063.05.098.106.098.177 0 .05-.014.135-.042.263l-.378 1.687c.559-.63 1.266-1.227 2.113-1.78.447-.283.818-.425 1.112-.425.217 0 .385.07.504.206.119.134.182.34.182.595 0 .178-.028.369-.077.589a52.819 52.819 0 0 1-.693 2.383c-.35 1.141-.525 1.9-.525 2.276 0 .12.014.206.049.262.035.064.084.092.14.092.161 0 .413-.156.756-.475.245-.227.489-.44.727-.63l.189.311a7.54 7.54 0 0 1-1.574 1.376c-.35.22-.629.333-.86.333a.58.58 0 0 1-.49-.234c-.119-.156-.175-.404-.175-.759 0-.496.308-1.737.923-3.722.189-.71.28-1.114.28-1.234 0-.163-.105-.249-.307-.249-.224 0-.504.12-.854.355a5.16 5.16 0 0 0-1.301 1.227c-.224.305-.406.787-.553 1.446l-.672 2.936h-1.238c.231-.844.434-1.645.609-2.41l.734-3.2c.028-.127.042-.212.042-.268 0-.15-.056-.22-.168-.22-.09 0-.216.056-.384.177a4.9 4.9 0 0 0-.966.844l.014-.007Zm11.537-.036-.245-.347c.545-.553 1.07-.965 1.56-1.227.49-.262.881-.39 1.168-.39.119 0 .203.028.266.078.056.05.091.12.091.213 0 .106-.042.319-.133.624-.133.468-.217.844-.266 1.113 1.329-1.354 2.351-2.035 3.05-2.035.182 0 .322.05.42.156.091.106.14.27.14.503 0 .234-.084.631-.252 1.192.63-.674 1.176-1.15 1.637-1.433.462-.283.826-.418 1.085-.418.231 0 .412.064.538.198.126.135.189.34.189.617 0 .17-.028.37-.084.596-.056.227-.259.929-.608 2.1-.434 1.446-.651 2.31-.651 2.594 0 .192.077.284.231.284.105 0 .21-.035.308-.1a8.394 8.394 0 0 0 1.007-.878l.273.312c-.119.092-.336.29-.658.588-.44.404-.741.66-.909.759-.322.191-.595.284-.812.284-.168 0-.314-.086-.44-.249s-.189-.39-.189-.68c0-.27.042-.582.119-.944.077-.361.3-1.163.671-2.418.28-.943.42-1.51.42-1.716 0-.191-.084-.283-.252-.283-.133 0-.322.07-.553.212-.475.291-.874.646-1.189 1.057-.224.29-.413.752-.58 1.376a63.833 63.833 0 0 0-.826 3.36h-1.189l1.238-5.14c.091-.37.133-.582.133-.639 0-.077-.021-.134-.07-.17-.042-.042-.105-.064-.189-.064-.147 0-.385.121-.7.348-.545.397-.944.78-1.182 1.149-.238.368-.448.936-.616 1.688l-.636 2.822h-1.189l.937-4.014c.28-1.163.42-1.794.42-1.893 0-.12-.049-.178-.147-.178-.217 0-.658.32-1.322.965l-.014.028Zm13.859-5.58c.168 0 .314.056.419.17a.598.598 0 0 1 .161.44.936.936 0 0 1-.252.645c-.167.184-.356.276-.566.276a.542.542 0 0 1-.413-.177c-.112-.12-.161-.27-.161-.461 0-.248.077-.461.238-.638a.74.74 0 0 1 .567-.263l.007.007Zm-3.289 5.58-.356-.29c.552-.617 1.056-1.057 1.504-1.312.455-.263.839-.39 1.161-.39.175 0 .315.042.406.12.091.078.14.184.14.32 0 .162-.182.85-.539 2.07-.581 1.993-.874 3.191-.874 3.595 0 .085.021.15.063.206.042.057.077.085.126.085.174 0 .629-.355 1.357-1.07l.322.325c-.756.73-1.309 1.199-1.658 1.404-.35.206-.63.305-.854.305a.602.602 0 0 1-.462-.184c-.112-.12-.168-.298-.168-.518 0-.702.42-2.41 1.253-5.14.042-.128.056-.242.056-.348 0-.114-.049-.17-.147-.17a.7.7 0 0 0-.378.134c-.14.092-.462.376-.952.865v-.007Zm4.058.036-.287-.291c.714-.688 1.281-1.142 1.707-1.369.42-.227.784-.34 1.085-.34a.47.47 0 0 1 .28.078c.063.05.097.106.097.177 0 .05-.013.135-.041.263l-.378 1.687c.559-.63 1.266-1.227 2.113-1.78.447-.283.818-.425 1.112-.425.217 0 .385.07.504.206.119.134.181.34.181.595 0 .178-.027.369-.076.589a52.819 52.819 0 0 1-.693 2.383c-.35 1.141-.525 1.9-.525 2.276 0 .12.014.206.049.262.035.064.084.092.14.092.161 0 .413-.156.756-.475.245-.227.489-.44.727-.63l.189.311c-.504.568-1.028 1.028-1.574 1.376-.35.22-.63.333-.86.333a.58.58 0 0 1-.49-.234c-.119-.156-.175-.404-.175-.759 0-.496.308-1.737.923-3.722.189-.71.28-1.114.28-1.234 0-.163-.105-.249-.308-.249-.223 0-.503.12-.853.355a5.143 5.143 0 0 0-1.301 1.227c-.224.305-.406.787-.553 1.446l-.672 2.936h-1.238c.231-.844.434-1.645.609-2.41l.734-3.2c.028-.127.042-.212.042-.268 0-.15-.056-.22-.168-.22-.091 0-.216.056-.384.177a4.9 4.9 0 0 0-.966.844l.014-.007Zm13.95 3.325.238.327c-.742.638-1.287 1.063-1.644 1.27-.497.29-.889.432-1.175.432a.448.448 0 0 1-.322-.114.345.345 0 0 1-.126-.255c0-.092.028-.255.091-.475l.294-1.029c-.665.73-1.218 1.227-1.665 1.49-.441.262-.84.39-1.197.39-.294 0-.538-.135-.734-.39-.203-.263-.301-.646-.301-1.15 0-.8.266-1.722.811-2.758.539-1.042 1.141-1.808 1.798-2.304.665-.497 1.267-.745 1.812-.745.119 0 .301.021.546.057.259-1.092.504-1.886.742-2.39.237-.503.545-.936.923-1.298a4.118 4.118 0 0 1 1.287-.843c.483-.199.938-.298 1.358-.298a.79.79 0 0 1 .531.177.58.58 0 0 1 .196.454c0 .184-.063.319-.182.425-.119.114-.287.163-.503.163-.14 0-.399-.028-.777-.078a7.494 7.494 0 0 0-.777-.078.813.813 0 0 0-.51.178c-.147.12-.287.376-.42.766-.091.255-.287 1.056-.595 2.418l-1.161 5.084c-.133.603-.203 1-.203 1.199 0 .212.084.312.238.312a.752.752 0 0 0 .35-.107c.182-.106.545-.383 1.084-.83h-.007Zm-1.742-4.346c-.448-.1-.755-.15-.937-.15-.371 0-.735.15-1.085.447-.357.298-.699.873-1.028 1.724-.329.85-.49 1.595-.49 2.226 0 .291.077.525.224.71.154.184.329.276.518.276.231 0 .496-.106.797-.312a3.548 3.548 0 0 0 1.015-1.135c.147-.283.349-.971.608-2.07l.385-1.702-.007-.014Zm6.485-.98c-.678 0-1.231.207-1.672.618-.44.411-.657.893-.657 1.44 0 .595.287 1.22.867 1.872.42.468.686.8.805 1 .119.205.175.404.175.602 0 .199-.063.419-.196.624a1.112 1.112 0 0 1-.532.468c-.231.107-.49.156-.79.156-.259 0-.469-.064-.616-.191a.587.587 0 0 1-.231-.468v-.185c.007-.092.014-.163.014-.22a.483.483 0 0 0-.161-.361.556.556 0 0 0-.399-.156.592.592 0 0 0-.447.191.686.686 0 0 0-.182.483c0 .397.161.73.482 1 .322.269.812.404 1.47.404.783 0 1.427-.22 1.923-.667.497-.447.749-.964.749-1.553s-.308-1.22-.916-1.88c-.448-.481-.728-.829-.84-1.042a1.418 1.418 0 0 1-.161-.666c0-.262.091-.482.259-.66a.823.823 0 0 1 .602-.262c.266 0 .531.184.804.553.147.192.252.312.329.362.077.05.168.07.273.07a.573.573 0 0 0 .413-.17.552.552 0 0 0 .168-.397c0-.255-.133-.475-.399-.673-.266-.199-.651-.291-1.148-.291h.014Z"/></g><defs><clipPath id="a"><path fill="#fff" d="M0 0h330v56H0z"/></clipPath></defs></svg>