<svg width="160" height="118" viewBox="0 0 160 118" fill="none" xmlns="http://www.w3.org/2000/svg">
<path fill-rule="evenodd" clip-rule="evenodd" d="M33.3573 75.5493L74.3376 27.5431V75.5493H87.6947V27.5434L128.675 75.5493H144.799L89.0787 10.2756L81.016 0.832031L72.9539 10.2756L17.2325 75.5493H33.3573Z" fill="#FFD003"/>
<path fill-rule="evenodd" clip-rule="evenodd" d="M0 97.9385L8.30785 88.2707H0.258393V85.3577H12.5808V87.8827L4.27268 97.5502H12.5808V100.463H0V97.9385Z" fill="#7D7A7A"/>
<path fill-rule="evenodd" clip-rule="evenodd" d="M37.3118 85.3577H40.6351V91.3357H46.7636V85.3577H50.0861V100.463H46.7636V94.3992H40.6351V100.463H37.3118V85.3577Z" fill="#7D7A7A"/>
<path fill-rule="evenodd" clip-rule="evenodd" d="M75.2949 85.3577H86.6887V88.3146H78.5965V91.3784H85.7179V94.3341H78.5965V97.506H86.7965V100.463H75.2949V85.3577Z" fill="#7D7A7A"/>
<path fill-rule="evenodd" clip-rule="evenodd" d="M118.52 97.5502C119.987 97.5502 120.872 97.0323 120.872 95.867C120.872 94.8526 120.117 94.2268 118.412 94.2268H114.57V97.5502H118.52ZM117.635 91.4644C119.103 91.4644 120.03 90.9901 120.03 89.8242C120.03 88.832 119.253 88.2716 117.85 88.2716H114.57V91.4644H117.635ZM111.333 85.3577H118.347C120.074 85.3577 121.433 85.833 122.296 86.6956C122.987 87.3865 123.332 88.228 123.332 89.3069C123.332 91.0119 122.424 91.9609 121.346 92.5649C123.094 93.234 124.173 94.248 124.173 96.3202C124.173 99.0816 121.929 100.463 118.52 100.463H111.333V85.3577Z" fill="#7D7A7A"/>
<path fill-rule="evenodd" clip-rule="evenodd" d="M148.498 85.3577H159.892V88.3146H151.799V91.3784H158.92V94.3341H151.799V97.506H160V100.463H148.498V85.3577Z" fill="#7D7A7A"/>
<path fill-rule="evenodd" clip-rule="evenodd" d="M45.6418 110.148H47.1637V115.681H50.6119V117.065H45.6418V110.148Z" fill="#FFD003"/>
<path fill-rule="evenodd" clip-rule="evenodd" d="M58.7981 113.606C58.7981 112.421 57.9293 111.432 56.7039 111.432C55.4781 111.432 54.6284 112.4 54.6284 113.606C54.6284 114.792 55.4984 115.78 56.7239 115.78C57.9487 115.78 58.7981 114.812 58.7981 113.606ZM53.038 113.606C53.038 111.639 54.5891 110.029 56.7239 110.029C58.8574 110.029 60.3895 111.62 60.3895 113.606C60.3895 115.573 58.8384 117.183 56.7039 117.183C54.5691 117.183 53.038 115.592 53.038 113.606Z" fill="#FFD003"/>
<path fill-rule="evenodd" clip-rule="evenodd" d="M63.4187 113.606C63.4187 111.639 64.9501 110.029 67.0447 110.029C68.2898 110.029 69.0415 110.365 69.7626 110.978L68.8037 112.134C68.2707 111.69 67.7958 111.432 66.9962 111.432C65.889 111.432 65.0094 112.411 65.0094 113.606C65.0094 114.871 65.8791 115.799 67.1046 115.799C67.6579 115.799 68.1516 115.662 68.5371 115.384V114.397H67.0057V113.082H70.0093V116.086C69.2981 116.689 68.3196 117.183 67.0551 117.183C64.9007 117.183 63.4187 115.671 63.4187 113.606Z" fill="#FFD003"/>
<path fill-rule="evenodd" clip-rule="evenodd" d="M73.5211 110.147H75.0427V117.064H73.5211V110.147Z" fill="#FFD003"/>
<path fill-rule="evenodd" clip-rule="evenodd" d="M78.2767 116.056L79.1766 114.98C79.7983 115.494 80.4508 115.819 81.2416 115.819C81.8634 115.819 82.2391 115.573 82.2391 115.147C82.2391 114.761 82.0026 114.565 80.8459 114.268C79.4533 113.912 78.5541 113.527 78.5541 112.133C78.5541 110.879 79.5615 110.049 80.9749 110.049C81.9829 110.049 82.8425 110.364 83.5444 110.928L82.7534 112.075C82.1405 111.65 81.5384 111.392 80.955 111.392C80.3716 111.392 80.0656 111.66 80.0656 112.015C80.0656 112.469 80.3624 112.618 81.5571 112.924C82.9604 113.289 83.7515 113.793 83.7515 115.019C83.7515 116.392 82.7039 117.163 81.2115 117.163C80.1642 117.163 79.1068 116.798 78.2767 116.056Z" fill="#FFD003"/>
<path fill-rule="evenodd" clip-rule="evenodd" d="M88.5194 111.55H86.4147V110.147H92.1459V111.55H90.0403V117.064H88.5194V111.55Z" fill="#FFD003"/>
<path fill-rule="evenodd" clip-rule="evenodd" d="M95.3604 110.147H96.882V117.064H95.3604V110.147Z" fill="#FFD003"/>
<path fill-rule="evenodd" clip-rule="evenodd" d="M100.283 113.606C100.283 111.639 101.765 110.029 103.89 110.029C105.194 110.029 105.925 110.523 106.568 111.156L105.659 112.203C105.125 111.719 104.671 111.432 103.879 111.432C102.714 111.432 101.874 112.4 101.874 113.606C101.874 114.792 102.694 115.78 103.879 115.78C104.671 115.78 105.155 115.464 105.698 114.969L106.666 116.007C105.955 116.768 105.165 117.183 103.831 117.183C101.795 117.183 100.283 115.613 100.283 113.606Z" fill="#FFD003"/>
<path fill-rule="evenodd" clip-rule="evenodd" d="M109.39 116.056L110.29 114.98C110.911 115.494 111.563 115.819 112.355 115.819C112.977 115.819 113.352 115.573 113.352 115.147C113.352 114.761 113.116 114.565 111.959 114.268C110.566 113.912 109.667 113.527 109.667 112.133C109.667 110.879 110.674 110.049 112.087 110.049C113.095 110.049 113.954 110.364 114.656 110.928L113.866 112.075C113.253 111.65 112.651 111.392 112.068 111.392C111.485 111.392 111.178 111.66 111.178 112.015C111.178 112.469 111.475 112.618 112.67 112.924C114.074 113.289 114.864 113.793 114.864 115.019C114.864 116.392 113.817 117.163 112.325 117.163C111.277 117.163 110.22 116.798 109.39 116.056Z" fill="#FFD003"/>
</svg>
